<svg width="184" height="952" viewBox="0 0 184 952" fill="none" xmlns="http://www.w3.org/2000/svg">
<path d="M161.998 0.599976L143.098 71H141.098L120.198 3.89998L99.2977 71H97.4977L78.5977 0.599976H80.7977L98.4977 67.1L119.098 0.599976H121.298L142.098 67.4L159.798 0.599976H161.998Z" fill="#F2F2F2"/>
<path d="M106.789 80.6V151H104.789V80.6H106.789Z" fill="#F2F2F2"/>
<path d="M67.5801 229.2H94.5801V231H65.5801V160.6H67.5801V229.2Z" fill="#F2F2F2"/>
<path d="M112.205 240.6C124.338 240.6 133.572 243.667 139.905 249.8C146.238 255.933 149.405 264.6 149.405 275.8C149.405 287 146.238 295.667 139.905 301.8C133.572 307.933 124.338 311 112.205 311H93.7051V240.6H112.205ZM112.205 309.2C123.805 309.2 132.572 306.267 138.505 300.4C144.438 294.533 147.405 286.333 147.405 275.8C147.405 265.267 144.438 257.067 138.505 251.2C132.572 245.333 123.805 242.4 112.205 242.4H95.7051V309.2H112.205Z" fill="#F2F2F2"/>
<path d="M0.873047 355.9C0.873047 348.9 2.27304 342.7 5.07304 337.3C7.87304 331.833 11.773 327.567 16.773 324.5C21.773 321.433 27.4064 319.9 33.673 319.9C41.8731 319.9 48.6397 321.8 53.9731 325.6C59.3731 329.4 63.3064 334.667 65.7731 341.4H63.773C61.6397 335.467 58.0064 330.7 52.873 327.1C47.7397 323.5 41.3397 321.7 33.673 321.7C27.9397 321.7 22.7397 323.1 18.0731 325.9C13.4064 328.633 9.70638 332.6 6.97305 337.8C4.30638 342.933 2.97305 348.967 2.97305 355.9C2.97305 362.767 4.30638 368.767 6.97305 373.9C9.70638 379.033 13.4064 383 18.0731 385.8C22.8064 388.533 28.0064 389.9 33.673 389.9C41.3397 389.9 47.7397 388.133 52.873 384.6C58.0064 381 61.6397 376.233 63.773 370.3H65.7731C63.3064 377.033 59.3731 382.3 53.9731 386.1C48.6397 389.833 41.8731 391.7 33.673 391.7C27.4064 391.7 21.773 390.2 16.773 387.2C11.773 384.133 7.87304 379.9 5.07304 374.5C2.27304 369.033 0.873047 362.833 0.873047 355.9Z" fill="#F2F2F2"/>
<path d="M97.0488 471L78.2488 440.3H76.3488H60.5488V471H58.5488V400.6H76.1488C83.8822 400.6 89.6155 402.367 93.3488 405.9C97.1488 409.433 99.0488 414.267 99.0488 420.4C99.0488 426.067 97.4488 430.6 94.2488 434C91.0488 437.4 86.4822 439.433 80.5488 440.1L99.5488 471H97.0488ZM76.3488 438.4C83.2155 438.4 88.3488 436.767 91.7488 433.5C95.2155 430.233 96.9488 425.867 96.9488 420.4C96.9488 408.533 90.0155 402.6 76.1488 402.6H60.5488V438.4H76.3488Z" fill="#F2F2F2"/>
<path d="M137.783 531.6H102.983L95.5832 551H93.2832L119.383 482.7H121.383L147.383 551H145.083L137.783 531.6ZM137.083 529.8L120.383 485.9L103.683 529.8H137.083Z" fill="#F2F2F2"/>
<path d="M183.281 560.6V562.4H150.881V594.9H180.281V596.7H150.881V631H148.881V560.6H183.281Z" fill="#F2F2F2"/>
<path d="M127.324 640.6V642.4H106.824V711H104.824V642.4H84.3242V640.6H127.324Z" fill="#F2F2F2"/>
<path d="M77.7852 720.6V791H75.7852V720.6H77.7852Z" fill="#F2F2F2"/>
<path d="M158.641 871H156.641L112.941 804.3V871H110.941V800.7H112.941L156.641 867.3V800.7H158.641V871Z" fill="#F2F2F2"/>
<path d="M135.111 901.5C132.978 895.633 129.311 890.9 124.111 887.3C118.978 883.633 112.878 881.8 105.811 881.8C99.9443 881.8 94.6109 883.2 89.8109 886C85.0109 888.733 81.2109 892.7 78.4109 897.9C75.6776 903.033 74.3109 909.033 74.3109 915.9C74.3109 922.767 75.6776 928.8 78.4109 934C81.2109 939.133 85.0109 943.1 89.8109 945.9C94.6109 948.633 99.9443 950 105.811 950C111.544 950 116.778 948.667 121.511 946C126.311 943.333 130.144 939.5 133.011 934.5C135.878 929.433 137.378 923.567 137.511 916.9H104.311V915.1H139.411V915.9C139.411 922.833 137.978 929.033 135.111 934.5C132.244 939.967 128.244 944.233 123.111 947.3C118.044 950.3 112.278 951.8 105.811 951.8C99.3443 951.8 93.5443 950.3 88.4109 947.3C83.3443 944.233 79.3776 939.967 76.5109 934.5C73.6443 929.033 72.2109 922.833 72.2109 915.9C72.2109 908.967 73.6443 902.767 76.5109 897.3C79.3776 891.833 83.3443 887.6 88.4109 884.6C93.5443 881.533 99.3443 880 105.811 880C113.411 880 119.911 881.933 125.311 885.8C130.711 889.667 134.644 894.9 137.111 901.5H135.111Z" fill="#F2F2F2"/>
</svg>
